<svg width="30" height="42" viewBox="0 0 30 42" fill="none" xmlns="http://www.w3.org/2000/svg">
<path d="M21.2151 5.05594C22.0924 5.21205 22.8884 5.60421 23.6029 6.23242C24.3175 6.86063 24.8317 7.63086 25.1456 8.54311C25.5657 9.43225 25.777 10.5916 25.7794 12.0211C25.7822 13.4719 25.5934 14.9472 25.2129 16.4471C25.113 16.8541 25.0239 17.2717 24.9457 17.6997C24.8675 18.1277 24.8189 18.4166 24.8001 18.5662C24.7396 18.7806 24.6068 19.1349 24.4017 19.629C24.1965 20.1231 23.9604 20.6818 23.6934 21.305C23.4268 21.9495 23.1706 22.5832 22.9249 23.206C22.6583 23.8506 22.433 24.4197 22.2492 24.9135C22.0234 25.4507 21.6926 26.0856 21.2567 26.8183C20.7995 27.5513 20.3316 28.2845 19.8531 29.0179C19.3532 29.7516 18.9051 30.3885 18.5086 30.9285C18.0909 31.4688 17.7978 31.8044 17.6292 31.9352C17.5244 32.0437 17.3774 32.1848 17.1882 32.3586C16.9991 32.5325 16.83 32.6313 16.6811 32.6551C16.5997 32.8912 16.4322 33.086 16.1787 33.2395C15.9252 33.3931 15.7025 33.4715 15.5105 33.4747C15.0242 33.7388 14.6415 33.8198 14.3624 33.7178C14.062 33.6161 13.8212 33.2467 13.6399 32.6096C13.5709 32.3121 13.5678 32.1201 13.6303 32.0337C13.6716 31.9477 13.9039 31.8051 14.3273 31.6061C14.5392 31.5172 14.8037 31.3848 15.1208 31.2088C15.4383 31.0542 15.6703 30.8903 15.8168 30.7172C16.0048 30.4794 16.2142 30.2412 16.445 30.0027C16.6757 29.7641 16.8544 29.6011 16.9809 29.5137C17.3624 29.358 17.5515 29.1842 17.5483 28.9922C17.5483 28.9922 17.6413 28.8093 17.8272 28.4435C17.9919 28.078 18.2726 27.636 18.6693 27.1173C18.9186 26.7078 19.2089 26.2015 19.5402 25.5986C19.8716 24.9957 20.1308 24.5433 20.3178 24.2415C20.5041 23.897 20.6593 23.6064 20.7833 23.3696C20.8864 23.1546 21.0427 22.9279 21.2521 22.6898C21.251 22.6258 21.2806 22.4759 21.3406 22.2402C21.4007 22.0045 21.5243 21.7358 21.7113 21.434C21.8315 20.9626 22.077 20.3291 22.4478 19.5335C22.5915 19.1897 22.7653 18.7387 22.9694 18.1806C23.1522 17.6228 23.3139 17.0867 23.4548 16.5723C23.5742 16.0583 23.6322 15.6946 23.6286 15.4813C23.6713 15.4806 23.7129 15.4159 23.7534 15.2872C23.773 15.1802 23.8114 14.9235 23.8687 14.5172C23.9049 14.1325 23.9798 13.5018 24.0932 12.6252C24.0986 11.6649 24.0642 10.8761 23.9899 10.2585C23.8943 9.64138 23.7256 9.12145 23.4839 8.69874C23.2418 8.2547 22.9253 7.82257 22.5342 7.40234C22.2961 7.19294 22.0588 7.03686 21.8224 6.93411C21.586 6.83136 21.3076 6.77197 20.9873 6.75596L19.8883 6.10213C20.0081 5.60941 20.1738 5.30795 20.3853 5.19775C20.5752 5.06658 20.8517 5.01931 21.2151 5.05594Z" fill="#F9F9F9"/>
<path d="M11.808 38.24C10.976 38.0053 10.3573 37.8347 9.952 37.728C9.54667 37.6 9.14133 37.3867 8.736 37.088C7.94667 36.832 7.30667 36.5227 6.816 36.16C6.32533 35.776 5.83467 35.3173 5.344 34.784L4.16 33.376L3.936 32.416C4.10667 32.3733 4.352 32.256 4.672 32.064C4.992 31.8507 5.17333 31.7333 5.216 31.712C5.45067 31.52 5.71733 31.328 6.016 31.136C6.31467 30.9227 6.72 30.6667 7.232 30.368C7.744 30.0693 8.42667 29.6853 9.28 29.216C10.176 28.7893 10.7947 28.4587 11.136 28.224C11.4773 27.9893 11.776 27.7867 12.032 27.616C12.1813 27.5093 12.352 27.392 12.544 27.264C12.7573 27.136 12.9067 27.0827 12.992 27.104C13.12 27.0827 13.216 27.0933 13.28 27.136C13.344 27.1573 13.4187 27.2107 13.504 27.296C13.6747 27.5093 13.8667 27.648 14.08 27.712C14.3147 27.7547 14.432 27.8613 14.432 28.032C14.432 28.032 14.3893 28.1173 14.304 28.288C14.2187 28.4373 14.0907 28.5653 13.92 28.672C13.6 28.8427 13.2587 29.0133 12.896 29.184C12.5333 29.3547 12.0747 29.5893 11.52 29.888C10.9653 30.1867 10.208 30.624 9.248 31.2C8.672 31.5413 8.16 31.8293 7.712 32.064C7.28533 32.2987 6.95467 32.5227 6.72 32.736C6.50667 32.928 6.42133 33.1627 6.464 33.44C6.656 33.8667 7.25333 34.3467 8.256 34.88C9.28 35.4133 10.6027 35.9253 12.224 36.416C12.8 36.544 13.3013 36.7147 13.728 36.928C14.1547 37.1413 14.4427 37.3547 14.592 37.568C14.7413 37.7813 14.6667 37.9733 14.368 38.144C14.2613 38.1653 14.0907 38.208 13.856 38.272C13.6427 38.3147 13.3653 38.3467 13.024 38.368C12.704 38.368 12.2987 38.3253 11.808 38.24Z" fill="#F9F9F9"/>
</svg>
