<svg width="50" height="50" viewBox="0 0 50 50" fill="none" xmlns="http://www.w3.org/2000/svg">
<path d="M26.7188 25C26.7188 20.9719 29.9031 17.7094 33.8281 17.7094C37.7562 17.7094 40.9375 20.9688 40.9375 25C40.9375 29.0281 37.7562 32.2906 33.8281 32.2906C29.9062 32.2906 26.7188 29.0313 26.7188 25Z" fill="#1ABCFE"/>
<path d="M12.5 39.5844C12.5 35.5562 15.6844 32.2906 19.6094 32.2906H26.7188V39.5844C26.7188 43.6094 23.5344 46.875 19.6094 46.875C15.6844 46.875 12.5 43.6094 12.5 39.5844Z" fill="#0ACF83"/>
<path d="M26.7188 3.125V17.7094H33.8281C37.7562 17.7094 40.9375 14.4438 40.9375 10.4156C40.9375 6.39062 37.7562 3.125 33.8281 3.125H26.7188Z" fill="#FF7262"/>
<path d="M12.5 10.4156C12.5 14.4438 15.6844 17.7094 19.6094 17.7094H26.7188V3.125H19.6094C15.6844 3.125 12.5 6.39062 12.5 10.4156Z" fill="#F24E1E"/>
<path d="M12.5 25C12.5 29.0281 15.6844 32.2906 19.6094 32.2906H26.7188V17.7094H19.6094C15.6844 17.7094 12.5 20.9688 12.5 25Z" fill="#A259FF"/>
</svg>
