<svg width="50" height="50" viewBox="0 0 50 50" fill="none" xmlns="http://www.w3.org/2000/svg">
<g clip-path="url(#clip0_17_194)">
<path fill-rule="evenodd" clip-rule="evenodd" d="M24.9984 0.520844C11.1937 0.520844 0 11.7574 0 25.6215C0 36.709 7.16249 46.1165 17.0984 49.4359C18.3484 49.6665 18.8047 48.8915 18.8047 48.2264C18.8047 47.6303 18.7828 46.0522 18.7703 43.958C11.8156 45.4749 10.3484 40.5932 10.3484 40.5932C9.21251 37.6942 7.57345 36.9224 7.57345 36.9224C5.30313 35.3647 7.7453 35.396 7.7453 35.396C10.2531 35.5733 11.5734 37.9828 11.5734 37.9828C13.8047 41.8183 17.425 40.7108 18.85 40.0676C19.0766 38.4456 19.7234 37.3397 20.4375 36.7122C14.8859 36.0785 9.04999 33.9262 9.04999 24.3085C9.04999 21.568 10.0234 19.3279 11.6234 17.5725C11.3656 16.9372 10.5078 14.3865 11.8672 10.9307C11.8672 10.9307 13.9672 10.2561 18.7422 13.5033C20.7375 12.9465 22.875 12.6688 25.0016 12.6578C27.125 12.6688 29.2641 12.9465 31.2609 13.5033C36.0328 10.2561 38.1282 10.9307 38.1282 10.9307C39.4922 14.3865 38.6344 16.9372 38.3766 17.5725C39.9797 19.3279 40.9469 21.568 40.9469 24.3085C40.9469 33.9497 35.1016 36.0721 29.5328 36.6933C30.4297 37.4683 31.2297 38.9993 31.2297 41.3414C31.2297 44.6968 31.1984 47.4028 31.1984 48.2264C31.1984 48.8978 31.6485 49.679 32.9172 49.4327C42.8438 46.1071 50 36.7059 50 25.6215C50 11.7574 38.8062 0.520844 24.9984 0.520844Z" fill="#3E75C3"/>
</g>
<defs>
<clipPath id="clip0_17_194">
<rect width="50" height="50" fill="white"/>
</clipPath>
</defs>
</svg>
