<svg width="50" height="50" viewBox="0 0 50 50" fill="none" xmlns="http://www.w3.org/2000/svg">
<g clip-path="url(#clip0_17_185)">
<path d="M42.9649 0C45.4203 0 47.4159 1.97044 47.4556 4.41695L47.4562 4.49123V45.4113C47.4562 47.8667 45.4851 49.8623 43.0392 49.9019L42.9649 49.9025H7.03511C4.57976 49.9025 2.58415 47.9315 2.54449 45.4856L2.54388 45.4113V4.49123C2.54388 2.03526 4.51494 0.040256 6.96085 0.000601594L7.03511 0H42.9649ZM42.9649 2.49513H7.03511C5.95195 2.49513 5.06705 3.3631 5.03966 4.4398L5.03901 4.49123V45.4113C5.03901 46.4945 5.90699 47.3794 6.98369 47.4068L7.03511 47.4074H42.9649C44.0487 47.4074 44.933 46.5394 44.9604 45.4627L44.961 45.4113V4.49123C44.961 3.39088 44.0659 2.49513 42.9649 2.49513ZM13.772 32.4366L19.386 37.4269L13.772 42.4172V32.4366ZM18.7622 7.48538V21.6521C21.2536 20.8412 24.7362 19.961 28.1189 19.961C31.2035 19.961 33.0499 21.1736 34.0555 22.191C36.1798 24.3401 36.2304 27.0718 36.2276 27.4361L36.2275 27.4464L36.2281 42.4172H31.2378V27.515C31.2135 26.3504 30.6521 24.9513 28.1189 24.9513C23.0958 24.9513 17.4675 27.4524 17.3003 27.5272L17.2969 27.5287L13.772 29.1256V7.48538H18.7622ZM36.2281 7.48538C35.8913 10.3198 34.7422 13.037 32.4854 15.5945H27.4952C29.4563 13.0214 30.6877 10.3136 31.2378 7.48538H36.2281Z" fill="#430098"/>
</g>
<defs>
<clipPath id="clip0_17_185">
<rect width="50" height="50" fill="white"/>
</clipPath>
</defs>
</svg>
