<svg width="50" height="50" viewBox="0 0 50 50" fill="none" xmlns="http://www.w3.org/2000/svg">
<path d="M45.9989 0.00448441H4.28115C3.74344 -0.0207025 3.20602 0.0603902 2.69969 0.243167C2.19336 0.425944 1.72805 0.70678 1.33038 1.06958C0.932729 1.43242 0.610518 1.87013 0.382242 2.35762C0.153966 2.84514 0.0240619 3.37288 0 3.91064V45.7223C0.0314993 46.8476 0.492676 47.9185 1.28881 48.7144C2.08495 49.5106 3.15568 49.9719 4.28115 50.0034H45.9989C47.093 49.9547 48.1245 49.4791 48.8723 48.6788C49.6201 47.8785 50.0245 46.8172 49.9988 45.7223V3.91064C50.0079 3.38722 49.9098 2.86751 49.7107 2.38334C49.5117 1.89919 49.2157 1.46079 48.8411 1.09502C48.4667 0.72928 48.0214 0.443913 47.5327 0.256386C47.0439 0.0688588 46.5221 -0.0168588 45.9989 0.00448441ZM15.6246 41.6911H8.34356V19.4104H15.6246V41.6911ZM12.156 16.0354C11.6479 16.0531 11.1416 15.9655 10.669 15.7782C10.1964 15.5909 9.76756 15.3079 9.40956 14.9469C9.05154 14.586 8.77202 14.1549 8.58858 13.6807C8.40512 13.2066 8.32171 12.6996 8.34356 12.1917C8.32109 11.6783 8.40618 11.1659 8.5934 10.6873C8.78061 10.2087 9.06579 9.77448 9.43063 9.41258C9.79549 9.05065 10.232 8.769 10.712 8.58569C11.1921 8.40235 11.7053 8.32142 12.2185 8.34804C12.7266 8.33036 13.2328 8.41789 13.7054 8.60519C14.1781 8.7925 14.6069 9.07553 14.9649 9.43649C15.3229 9.79745 15.6024 10.2285 15.7859 10.7027C15.9693 11.1768 16.0527 11.6838 16.0309 12.1917C16.0533 12.7051 15.9683 13.2176 15.781 13.6961C15.5938 14.1748 15.3086 14.6089 14.9438 14.9708C14.5789 15.3328 14.1425 15.6144 13.6624 15.7977C13.1823 15.9811 12.6692 16.062 12.156 16.0354ZM41.6865 41.6911H34.3742V29.5039C34.3742 26.5977 33.343 24.5978 30.7493 24.5978C29.9437 24.6046 29.1596 24.8606 28.5053 25.3306C27.8506 25.8005 27.3575 26.4615 27.0931 27.2227C26.89 27.7933 26.805 28.3992 26.8431 29.0039V41.6911H19.6558V19.4104H26.8431V22.5353C27.4822 21.3613 28.4331 20.3869 29.5912 19.7194C30.7493 19.0523 32.0693 18.7181 33.4055 18.7541C38.1241 18.7541 41.6865 21.8791 41.6865 28.5352V41.6911Z" fill="#F9F9F9"/>
</svg>
