<svg width="50" height="50" viewBox="0 0 50 50" fill="none" xmlns="http://www.w3.org/2000/svg">
<g clip-path="url(#clip0_29_19)">
<path d="M46.4207 20.4606C46.9797 18.777 47.1731 16.9935 46.9878 15.2292C46.8025 13.465 46.2429 11.7605 45.3463 10.2298C44.0171 7.91609 41.9874 6.08428 39.55 4.99845C37.1126 3.91262 34.3933 3.62887 31.7842 4.18812C30.3019 2.53929 28.4119 1.30952 26.3039 0.622311C24.1959 -0.0648952 21.9443 -0.18534 19.775 0.273075C17.6058 0.73149 15.5953 1.75262 13.9456 3.23392C12.2959 4.71521 11.065 6.60452 10.3765 8.71208C8.63831 9.06851 6.99621 9.79184 5.55995 10.8337C4.1237 11.8756 2.92636 13.2121 2.04797 14.7537C0.704289 17.0636 0.13001 19.7409 0.408156 22.3986C0.686301 25.0563 1.80246 27.5567 3.59526 29.5383C3.03414 31.2211 2.83885 33.0043 3.02244 34.7686C3.20604 36.533 3.76428 38.2378 4.65984 39.769C5.99076 42.0835 8.02217 43.9157 10.4613 45.0016C12.9005 46.0874 15.6214 46.3708 18.2319 45.8108C19.4096 47.137 20.8566 48.1966 22.4763 48.919C24.0961 49.6414 25.8513 50.01 27.6248 50C30.2991 50.0025 32.9049 49.1551 35.0662 47.5802C37.2275 46.0053 38.8325 43.7843 39.6494 41.2379C41.3874 40.8809 43.0293 40.1573 44.4654 39.1154C45.9016 38.0735 47.0991 36.7374 47.978 35.196C49.3058 32.8896 49.8702 30.2223 49.5905 27.5757C49.3107 24.9291 48.2013 22.4386 46.4207 20.4606ZM27.6248 46.7275C25.4347 46.731 23.3132 45.9633 21.6323 44.5592L21.928 44.3917L31.8828 38.6454C32.1305 38.5001 32.3362 38.2928 32.4797 38.044C32.6231 37.7951 32.6993 37.5133 32.7009 37.226V23.1908L36.9092 25.6254C36.93 25.6359 36.948 25.6513 36.9618 25.6701C36.9755 25.6889 36.9847 25.7107 36.9884 25.7337V37.3642C36.9831 39.8459 35.9949 42.2244 34.24 43.9793C32.4852 45.7341 30.1066 46.7223 27.6248 46.7275ZM7.49838 38.1329C6.39999 36.2363 6.00562 34.0131 6.38463 31.8544L6.68047 32.0319L16.645 37.7781C16.8916 37.9228 17.1723 37.9991 17.4582 37.9991C17.744 37.9991 18.0247 37.9228 18.2713 37.7781L30.4438 30.7604V35.6196C30.4427 35.6448 30.4358 35.6694 30.4239 35.6915C30.4119 35.7137 30.3951 35.7329 30.3746 35.7477L20.2917 41.5629C18.1399 42.8025 15.5841 43.1376 13.1855 42.4945C10.7869 41.8514 8.74147 40.2827 7.49838 38.1329ZM4.87672 16.4492C5.98272 14.5403 7.72845 13.0844 9.80484 12.3392V24.1667C9.80109 24.4524 9.8741 24.7339 10.0162 24.9818C10.1584 25.2297 10.3645 25.4349 10.613 25.576L22.7263 32.5642L18.5178 34.9985C18.495 35.0106 18.4696 35.017 18.4438 35.017C18.418 35.017 18.3926 35.0106 18.3698 34.9985L8.30672 29.1933C6.15893 27.9484 4.59203 25.903 3.94915 23.5052C3.30626 21.1073 3.6398 18.5524 4.87672 16.4V16.4492ZM39.4523 24.4821L27.2996 17.425L31.4984 15C31.5212 14.9879 31.5466 14.9816 31.5723 14.9816C31.5981 14.9816 31.6235 14.9879 31.6463 15L41.7094 20.8152C43.2481 21.703 44.5024 23.0102 45.326 24.5842C46.1496 26.1581 46.5085 27.9339 46.3607 29.7042C46.2129 31.4744 45.5646 33.1661 44.4915 34.5817C43.4183 35.9974 41.9646 37.0785 40.3 37.699V25.8715C40.2913 25.5862 40.2086 25.3081 40.0599 25.0645C39.9113 24.8209 39.702 24.6203 39.4523 24.4821ZM43.6413 18.184L43.3455 18.0065L33.4007 12.211C33.1526 12.0655 32.8702 11.9887 32.5825 11.9887C32.2949 11.9887 32.0125 12.0655 31.7644 12.211L19.6021 19.2285V14.3696C19.5995 14.3449 19.6037 14.3199 19.6141 14.2974C19.6245 14.2748 19.6408 14.2555 19.6613 14.2415L29.7244 8.43604C31.2667 7.54753 33.0302 7.11653 34.8084 7.19345C36.5867 7.27036 38.3063 7.85202 39.7662 8.87037C41.226 9.88873 42.3657 11.3017 43.052 12.944C43.7383 14.5863 43.9427 16.3901 43.6415 18.1444L43.6413 18.184ZM17.3053 26.7979L13.0969 24.3733C13.0759 24.3606 13.0579 24.3435 13.0442 24.3231C13.0305 24.3027 13.0215 24.2795 13.0178 24.2552V12.6546C13.0201 10.8749 13.529 9.13273 14.4849 7.63166C15.4409 6.13058 16.8045 4.93268 18.4162 4.17799C20.0279 3.42331 21.8211 3.14304 23.5862 3.36995C25.3513 3.59686 27.0154 4.32158 28.3838 5.45937L28.088 5.62708L18.1334 11.3729C17.8856 11.5182 17.6799 11.7255 17.5365 11.9743C17.393 12.2232 17.3168 12.5051 17.3153 12.7923L17.3053 26.7979ZM19.5919 21.87L25.0128 18.7454L30.4438 21.87V28.1187L25.0326 31.2431L19.6019 28.1187L19.5919 21.87Z" fill="#F9F9F9"/>
</g>
<defs>
<clipPath id="clip0_29_19">
<rect width="50" height="50" fill="white"/>
</clipPath>
</defs>
</svg>
