<svg width="50" height="50" viewBox="0 0 50 50" fill="none" xmlns="http://www.w3.org/2000/svg">
<path d="M25.0989 0C12.7741 0 13.5432 5.33266 13.5432 5.33266L13.5584 10.8575H25.3188V12.515H8.88428C8.88428 12.515 1 11.622 1 24.031C1 36.437 7.88301 35.9981 7.88301 35.9981H11.9913V30.2401C11.9913 30.2401 11.7698 23.3726 18.765 23.3726H30.4284C30.4284 23.3726 36.9822 23.4785 36.9822 17.053V6.42855C36.9822 6.42855 37.9774 0 25.0989 0ZM18.6133 3.71454C19.783 3.71454 20.7297 4.65907 20.7297 5.82611C20.7297 6.99315 19.783 7.93768 18.6133 7.93768C18.3353 7.93808 18.0599 7.88373 17.803 7.77776C17.546 7.67178 17.3126 7.51626 17.116 7.3201C16.9194 7.12395 16.7635 6.89101 16.6573 6.63464C16.5511 6.37828 16.4966 6.10352 16.497 5.82611C16.497 4.65907 17.4437 3.71454 18.6133 3.71454Z" fill="url(#paint0_linear_27_205)"/>
<path d="M25.2317 48C37.8989 48 37.1083 42.6671 37.1083 42.6671L37.0927 37.142H25.0056V35.4845H41.8952C41.8952 35.4845 50 36.3776 50 23.9695C50 11.5614 42.9258 12.0019 42.9258 12.0019H38.7034V17.7587C38.7034 17.7587 38.9311 24.6265 31.7415 24.6265H19.7542C19.7542 24.6265 13.0183 24.5205 13.0183 30.9463V41.5712C13.0183 41.5712 11.9955 48 25.2317 48ZM31.8974 44.2853C31.6117 44.2857 31.3286 44.2314 31.0645 44.1254C30.8005 44.0194 30.5605 43.8639 30.3585 43.6677C30.1564 43.4715 29.9962 43.2386 29.887 42.9822C29.7779 42.7258 29.7219 42.4511 29.7223 42.1736C29.7223 41.0081 30.6952 40.0635 31.8974 40.0635C33.0996 40.0635 34.0725 41.0066 34.0725 42.1736C34.0725 43.3422 33.0996 44.2853 31.8974 44.2853Z" fill="url(#paint1_linear_27_205)"/>
<defs>
<linearGradient id="paint0_linear_27_205" x1="5.66503" y1="4.21103" x2="29.6156" y2="28.296" gradientUnits="userSpaceOnUse">
<stop stop-color="#387EB8"/>
<stop offset="1" stop-color="#366994"/>
</linearGradient>
<linearGradient id="paint1_linear_27_205" x1="20.0769" y1="19.3133" x2="45.8227" y2="44.7201" gradientUnits="userSpaceOnUse">
<stop stop-color="#FFE052"/>
<stop offset="1" stop-color="#FFC331"/>
</linearGradient>
</defs>
</svg>
