<svg width="50" height="50" viewBox="0 0 50 50" fill="none" xmlns="http://www.w3.org/2000/svg">
<g clip-path="url(#clip0_17_170)">
<path d="M1.53906 40.0563C1.53906 40.0563 2.19844 33.5516 6.8125 25.8578C11.4281 18.1641 19.2969 12.3422 25.6922 11.7688C38.4172 10.4938 49.8484 21.9016 49.8484 21.9016C49.8484 21.9016 49.4734 22.1641 49.0766 22.4953C36.5938 13.2656 28.9687 17.6156 26.5703 18.7813C15.5812 24.9141 18.8984 40.0563 18.8984 40.0563H1.54219H1.53906ZM37.7141 13C37.0109 12.7156 36.3078 12.4531 35.5828 12.2109L35.6703 10.7578C37.0531 11.1547 37.6031 11.4188 37.8 11.5281L37.7125 13.0016L37.7141 13ZM35.625 17.6625C36.3281 17.7063 37.0547 17.7938 37.8016 17.9484L37.7141 19.3109C36.9891 19.1547 36.2641 19.0688 35.5391 19.0453L35.6266 17.6625H35.625ZM27.4953 10.8016C26.8594 10.8016 26.2219 10.825 25.5844 10.8922L25.1656 9.59532C25.8922 9.50782 26.5953 9.46407 27.275 9.46407L27.7156 10.8047H27.4969L27.4953 10.8016ZM28.5516 18.8922C29.0984 18.6516 29.7391 18.4078 30.4844 18.1891L30.9688 19.6422C30.3281 19.8375 29.6922 20.1016 29.0547 20.4078L28.55 18.8922H28.5516ZM18.5734 13.1109C18.0016 13.3984 17.4516 13.7281 16.8813 14.0797L15.8703 12.5406C16.4641 12.1891 17.0344 11.8844 17.5844 11.5969L18.5734 13.1109ZM23.0781 23.0016C23.4719 22.4969 23.9344 21.9922 24.4375 21.5297L25.4281 23.025C24.9438 23.5297 24.5063 24.0359 24.1313 24.5875L23.0781 23.0016ZM19.8906 30.0797C20.0656 29.2891 20.2656 28.475 20.55 27.6625L22.1312 28.9156C21.9125 29.7719 21.7563 30.6297 21.6703 31.4859L19.8906 30.0797ZM10.2656 19.6406C9.73438 20.1875 9.23125 20.7813 8.76875 21.375L7.07813 19.925C7.58281 19.375 8.13125 18.825 8.70312 18.2766L10.2656 19.6391V19.6406ZM3.625 29.4625C3.275 30.275 2.8125 31.3531 2.52813 32.1L0 31.1781C0.21875 30.5844 0.68125 29.4844 1.09844 28.5375L3.62656 29.4625H3.625ZM19.5625 35.6609L21.9344 36.5172C22.0656 37.5531 22.2625 38.5172 22.4609 39.3766L19.8234 38.4313C19.7141 37.7719 19.6047 36.8266 19.5609 35.6625L19.5625 35.6609Z" fill="#CC0000"/>
</g>
<defs>
<clipPath id="clip0_17_170">
<rect width="50" height="50" fill="white"/>
</clipPath>
</defs>
</svg>
