<svg width="50" height="50" viewBox="0 0 50 50" fill="none" xmlns="http://www.w3.org/2000/svg">
<g clip-path="url(#clip0_27_197)">
<path d="M1.50685 -0.0838833C1.76251 -0.0864911 1.76251 -0.0864911 2.02334 -0.0891515C2.2103 -0.0876644 2.39727 -0.0861772 2.58989 -0.084645C2.78873 -0.085685 2.98756 -0.086725 3.19242 -0.0877965C3.74455 -0.0899984 4.29654 -0.0892023 4.84867 -0.087139C5.444 -0.0856329 6.03932 -0.0879577 6.63464 -0.0897923C7.80097 -0.0927598 8.96727 -0.0921151 10.1336 -0.0901839C11.0813 -0.0886795 12.0291 -0.0884736 12.9768 -0.0891998C13.179 -0.089353 13.179 -0.089353 13.3852 -0.0895093C13.659 -0.0897225 13.9328 -0.0899386 14.2066 -0.0901577C16.7752 -0.0920596 19.3437 -0.0898716 21.9123 -0.0862908C24.1172 -0.0833122 26.3221 -0.0838295 28.527 -0.0869033C31.0862 -0.0904694 33.6455 -0.0918765 36.2048 -0.0898285C36.4776 -0.0896161 36.7504 -0.0894065 37.0232 -0.0891998C37.2245 -0.0890455 37.2245 -0.0890455 37.4299 -0.0888881C38.3767 -0.088312 39.3235 -0.0892851 40.2703 -0.0908528C41.4239 -0.0927208 42.5774 -0.0922204 43.7309 -0.0886656C44.3197 -0.0869111 44.9084 -0.0862315 45.4972 -0.0884317C46.1348 -0.0907785 46.7724 -0.0879802 47.41 -0.084645C47.6905 -0.0868757 47.6905 -0.0868757 47.9766 -0.0891515C48.147 -0.087413 48.3175 -0.0856745 48.4931 -0.0838833C48.6403 -0.0837751 48.7875 -0.0836669 48.9392 -0.0835554C49.4631 0.0275387 49.6656 0.258099 50 0.666677C50.0801 1.00627 50.0801 1.00627 50.0757 1.36964C50.0756 1.57478 50.0756 1.57478 50.0755 1.78406C50.0721 1.93009 50.0686 2.07612 50.0651 2.22657C50.0641 2.3773 50.0632 2.52803 50.0622 2.68333C50.0585 3.16398 50.0501 3.64442 50.0416 4.12501C50.0383 4.45118 50.0353 4.77735 50.0325 5.10353C50.0252 5.90243 50.0137 6.70119 50 7.50001C49.845 7.50062 49.69 7.50123 49.5303 7.50185C48.0641 7.50818 46.5979 7.51768 45.1317 7.53066C44.3781 7.53722 43.6245 7.5426 42.8708 7.54518C42.1424 7.54772 41.4141 7.55348 40.6857 7.5614C40.4089 7.56385 40.1321 7.56518 39.8553 7.56533C38.35 7.56686 37.0255 7.60244 35.6666 8.33334C35.4726 8.43217 35.2786 8.531 35.0787 8.63282C34.8912 8.74025 34.7036 8.84767 34.5104 8.95834C34.3468 9.05174 34.3468 9.05174 34.18 9.14702C32.8603 9.90531 31.5536 10.6862 30.2454 11.4641C29.0071 12.2004 27.7659 12.9315 26.5208 13.6563C25.0576 14.5081 23.5958 15.3623 22.1354 16.2188C21.9326 16.3377 21.7298 16.4566 21.527 16.5755C20.5821 17.1295 19.6373 17.6838 18.6927 18.2385C18.263 18.4909 17.8331 18.7431 17.4033 18.9954C17.2016 19.1137 17 19.2322 16.7985 19.3506C16.3316 19.625 15.8644 19.8987 15.3965 20.1713C15.0016 20.4018 14.6079 20.6337 14.2147 20.8671C14.0093 20.9876 13.8038 21.1081 13.5983 21.2285C13.4156 21.3365 13.233 21.4444 13.0449 21.5556C12.0918 22.0414 11.2251 22.2085 10.1605 22.2045C10.0498 22.2046 9.93907 22.2046 9.825 22.2047C9.46338 22.2044 9.10182 22.2019 8.7402 22.1992C8.48778 22.1986 8.23535 22.1981 7.98292 22.1978C7.32176 22.1965 6.66064 22.1933 5.99949 22.1896C5.20449 22.1855 4.40949 22.184 3.61448 22.1821C2.40963 22.1789 1.20483 22.1725 -3.05152e-05 22.1667C-3.05152e-05 19.1417 -3.05152e-05 16.1167 -3.05152e-05 13C2.6167 12.9733 2.6167 12.9733 3.74509 12.9675C4.51054 12.9635 5.27594 12.9588 6.04135 12.9497C6.65949 12.9424 7.27758 12.9385 7.89576 12.9368C8.12983 12.9355 8.36389 12.9332 8.59793 12.9295C10.7246 12.8978 12.5654 13.2678 14.3541 14.4479C15.4763 15.1636 16.3189 15.5419 17.6666 15.3333C18.3572 15.0398 18.9738 14.6548 19.6041 14.25C19.8552 14.095 19.8552 14.095 20.1113 13.9369C20.5208 13.6834 20.9279 13.4267 21.3333 13.1667C21.2821 12.6615 21.253 12.4081 20.8614 12.0689C20.7288 11.9942 20.5962 11.9195 20.4596 11.8425C20.3109 11.7567 20.1622 11.671 20.009 11.5827C19.8479 11.4935 19.6868 11.4044 19.5208 11.3125C19.2738 11.1719 19.2738 11.1719 19.0219 11.0284C18.6815 10.8345 18.3406 10.6417 17.9991 10.4498C17.5344 10.1862 17.0748 9.91589 16.6165 9.64129C16.4101 9.51838 16.4101 9.51838 16.1994 9.393C15.944 9.24081 15.689 9.08783 15.4346 8.93385C13.5092 7.80305 11.7801 7.56625 9.58656 7.56512C9.30892 7.56261 9.03129 7.55982 8.75366 7.55676C8.02896 7.54953 7.30429 7.54616 6.57956 7.54364C5.83762 7.54036 5.09572 7.53337 4.35381 7.5267C2.90254 7.51421 1.45128 7.50579 -3.05152e-05 7.50001C-0.0165156 6.53905 -0.0286119 5.57818 -0.0366516 4.61712C-0.0400032 4.29023 -0.0445519 3.96334 -0.0503235 3.63649C-0.0584146 3.16649 -0.062193 2.69663 -0.0651347 2.22657C-0.0685755 2.08054 -0.0720164 1.93451 -0.0755615 1.78406C-0.0756119 1.6473 -0.0756622 1.51054 -0.0757141 1.36964C-0.0771945 1.24973 -0.0786749 1.12981 -0.0802002 1.00627C0.115808 0.175999 0.716902 -0.0833026 1.50685 -0.0838833Z" fill="#78E9BA"/>
<path d="M41.4062 27.8008C41.6547 27.8014 41.9031 27.8019 42.1516 27.8022C42.8015 27.8035 43.4514 27.8067 44.1013 27.8104C44.8832 27.8145 45.6652 27.816 46.4471 27.8179C47.6314 27.8211 48.8157 27.8275 50 27.8333C50 30.8583 50 33.8833 50 37C47.3832 37.0267 47.3832 37.0267 46.2548 37.0325C45.4894 37.0365 44.724 37.0412 43.9586 37.0503C43.3404 37.0576 42.7224 37.0615 42.1042 37.0632C41.8701 37.0645 41.636 37.0668 41.402 37.0705C38.9762 37.1067 37.13 36.523 35.1071 35.2266C34.1823 34.6712 33.4077 34.4448 32.3333 34.6667C31.6441 34.9422 31.0273 35.2997 30.3958 35.6875C30.2284 35.7824 30.0611 35.8774 29.8886 35.9752C29.7307 36.0698 29.5728 36.1643 29.4101 36.2617C29.2671 36.3472 29.1241 36.4328 28.9768 36.5209C28.6098 36.8238 28.6098 36.8238 28.6202 37.369C28.6432 37.5989 28.6432 37.5989 28.6666 37.8333C28.805 37.8731 28.9434 37.9128 29.0859 37.9538C29.7642 38.2024 30.3419 38.5338 30.9583 38.9062C31.0806 38.9788 31.2029 39.0513 31.3289 39.126C31.9858 39.5174 32.6362 39.9177 33.2819 40.3275C33.4107 40.4085 33.5396 40.4895 33.6723 40.5729C33.9165 40.727 34.1595 40.8827 34.4012 41.0406C36.3229 42.2511 38.2166 42.4337 40.4297 42.4349C40.7071 42.4374 40.9844 42.4402 41.2618 42.4432C41.9852 42.4505 42.7085 42.4538 43.4318 42.4564C44.1727 42.4596 44.9135 42.4666 45.6543 42.4733C47.1028 42.4858 48.5514 42.4942 50 42.5C50.0165 43.4609 50.0285 44.4218 50.0366 45.3829C50.0399 45.7098 50.0445 46.0367 50.0503 46.3635C50.0583 46.8335 50.0621 47.3034 50.0651 47.7734C50.0685 47.9195 50.072 48.0655 50.0755 48.2159C50.0755 48.3527 50.0756 48.4895 50.0756 48.6304C50.0771 48.7503 50.0786 48.8702 50.0801 48.9937C49.9637 49.4871 49.7186 49.6789 49.3333 50C48.9392 50.0836 48.9392 50.0836 48.4931 50.0839C48.2374 50.0865 48.2374 50.0865 47.9766 50.0892C47.7896 50.0877 47.6027 50.0862 47.41 50.0846C47.1118 50.0862 47.1118 50.0862 46.8075 50.0878C46.2554 50.09 45.7034 50.0892 45.1513 50.0871C44.5559 50.0856 43.9606 50.088 43.3653 50.0898C42.199 50.0928 41.0327 50.0921 39.8663 50.0902C38.9186 50.0887 37.9709 50.0885 37.0231 50.0892C36.821 50.0894 36.821 50.0894 36.6147 50.0895C36.3409 50.0897 36.0671 50.0899 35.7933 50.0902C33.2247 50.0921 30.6562 50.0899 28.0876 50.0863C25.8827 50.0833 23.6778 50.0838 21.4729 50.0869C18.9137 50.0905 16.3544 50.0919 13.7952 50.0898C13.5224 50.0896 13.2496 50.0894 12.9768 50.0892C12.7754 50.089 12.7754 50.089 12.57 50.0889C11.6232 50.0883 10.6764 50.0893 9.72961 50.0909C8.57607 50.0927 7.42256 50.0922 6.26903 50.0887C5.68025 50.0869 5.09151 50.0862 4.50273 50.0884C3.86509 50.0908 3.22753 50.088 2.58989 50.0846C2.30945 50.0869 2.30945 50.0869 2.02334 50.0892C1.8529 50.0874 1.68245 50.0857 1.50685 50.0839C1.35962 50.0838 1.2124 50.0837 1.06072 50.0836C0.536814 49.9725 0.33429 49.7419 -3.47025e-05 49.3333C-0.0802044 48.9937 -0.0802044 48.9937 -0.0757183 48.6304C-0.0756679 48.4936 -0.0756176 48.3568 -0.0755657 48.2159C-0.0721249 48.0699 -0.068684 47.9239 -0.0651389 47.7734C-0.0641956 47.6227 -0.0632523 47.472 -0.0622804 47.3167C-0.0585535 46.836 -0.0501875 46.3556 -0.0417014 45.875C-0.0383572 45.5488 -0.0353154 45.2226 -0.0325868 44.8965C-0.0252428 44.0976 -0.0137385 43.2988 -3.47025e-05 42.5C0.154583 42.4994 0.309201 42.4988 0.468504 42.4981C1.93222 42.4918 3.39588 42.4823 4.85956 42.4693C5.61189 42.4628 6.36419 42.4574 7.11654 42.4548C7.84387 42.4523 8.5711 42.4465 9.29838 42.4386C9.57457 42.4361 9.85078 42.4348 10.127 42.4347C12.201 42.4325 13.8297 42.1492 15.6145 41.0208C15.8283 40.8881 16.0423 40.7558 16.2565 40.6237C16.4319 40.515 16.4319 40.515 16.6108 40.4041C17.3755 39.9375 18.1523 39.4913 18.927 39.0417C20.2144 38.2926 21.4996 37.5402 22.7812 36.7812C24.298 35.8831 25.8183 34.9911 27.3396 34.1007C28.6504 33.3334 29.9588 32.5623 31.2643 31.7861C32.001 31.3483 32.7384 30.9118 33.4763 30.476C33.8223 30.2716 34.1682 30.0669 34.5139 29.8619C34.9909 29.5797 35.4691 29.2999 35.9479 29.0208C36.0863 28.9385 36.2248 28.8561 36.3675 28.7713C36.4978 28.6959 36.6281 28.6206 36.7623 28.543C36.8733 28.4779 36.9843 28.4128 37.0987 28.3458C38.4941 27.7229 39.9101 27.7897 41.4062 27.8008Z" fill="#78E9BA"/>
<path d="M41.862 12.9512C42.0983 12.9521 42.3346 12.9528 42.5709 12.9533C43.1857 12.9552 43.8005 12.9601 44.4153 12.9657C45.1568 12.9717 45.8983 12.974 46.6398 12.9769C47.7599 12.9817 48.8799 12.9913 50 13C50 16.025 50 19.05 50 22.1667C48.7354 22.176 48.7354 22.176 47.4453 22.1855C46.9075 22.1906 46.3698 22.1958 45.832 22.2015C44.9806 22.2105 44.1293 22.219 43.2778 22.2244C42.5905 22.2288 41.9032 22.2355 41.2159 22.2439C40.9552 22.2466 40.6945 22.2486 40.4338 22.2496C38.4995 22.2582 36.65 22.3588 34.9447 23.3763C34.6804 23.5315 34.6804 23.5315 34.4107 23.6898C34.1404 23.8537 34.1404 23.8537 33.8646 24.0208C33.6718 24.1352 33.4789 24.2493 33.2859 24.3632C32.7444 24.6837 32.2054 25.0082 31.6667 25.3333C31.4348 25.4721 31.2028 25.6108 30.9707 25.7493C30.6848 25.9204 30.3991 26.0918 30.1141 26.2642C29.1623 26.8399 28.2009 27.3989 27.2396 27.9583C25.9523 28.7076 24.667 29.4599 23.3854 30.2187C21.7552 31.1838 20.1227 32.1451 18.4866 33.1002C17.4987 33.6771 16.5134 34.2573 15.5339 34.8483C15.3556 34.9549 15.1774 35.0615 14.9937 35.1713C14.6629 35.3692 14.333 35.5688 14.0043 35.7705C13.8546 35.8595 13.705 35.9486 13.5508 36.0404C13.36 36.156 13.36 36.156 13.1653 36.274C11.5621 37.0006 10.0234 37.069 8.28451 37.0488C8.04424 37.0479 7.80397 37.0472 7.56371 37.0467C6.93762 37.0448 6.31159 37.0399 5.68553 37.0343C4.93098 37.0283 4.17642 37.026 3.42186 37.0231C2.2812 37.0183 1.14067 37.0087 0 37C0 33.975 0 30.95 0 27.8333C1.27972 27.8269 1.27972 27.8269 2.58529 27.8203C3.12989 27.8161 3.67448 27.8117 4.21908 27.8066C5.08107 27.7986 5.94303 27.7913 6.80505 27.7882C7.50104 27.7856 8.19694 27.7798 8.89289 27.7719C9.15671 27.7695 9.42054 27.7682 9.68437 27.768C12.1707 27.7653 14.1108 27.2346 16.2396 25.9271C16.4117 25.824 16.5839 25.721 16.7613 25.6148C17.1158 25.4025 17.4698 25.1892 17.8232 24.9751C18.5834 24.5155 19.3492 24.0654 20.1146 23.6146C20.416 23.4362 20.7175 23.2578 21.0189 23.0794C22.143 22.4149 23.2693 21.7541 24.3958 21.0937C24.4981 21.0338 24.6003 20.9739 24.7057 20.9121C26.1288 20.078 27.5536 19.2467 28.9792 18.4167C30.0178 17.8118 31.0543 17.2043 32.0833 16.5833C32.2754 16.4683 32.4674 16.3533 32.6595 16.2383C33.0389 16.0111 33.4171 15.7821 33.7945 15.5516C34.3164 15.2333 34.8404 14.9186 35.3646 14.6042C35.5289 14.5029 35.6933 14.4016 35.8626 14.2972C36.0238 14.2013 36.1849 14.1053 36.3509 14.0065C36.4921 13.9209 36.6333 13.8353 36.7788 13.7471C38.4368 13.0082 40.0705 12.93 41.862 12.9512Z" fill="#78E9BA"/>
</g>
<defs>
<clipPath id="clip0_27_197">
<rect width="50" height="50" fill="white"/>
</clipPath>
</defs>
</svg>
