<svg width="60" height="60" viewBox="0 0 60 60" fill="none" xmlns="http://www.w3.org/2000/svg">
<path d="M45 30C45 38.2842 38.2842 45 30 45C21.7157 45 15 38.2842 15 30C15 21.7157 21.7157 15 30 15C38.2842 15 45 21.7157 45 30Z" fill="#0E1111"/>
<path fill-rule="evenodd" clip-rule="evenodd" d="M30 3.125C31.0355 3.125 31.875 3.96447 31.875 5V7.5C31.875 8.53552 31.0355 9.375 30 9.375C28.9645 9.375 28.125 8.53552 28.125 7.5V5C28.125 3.96447 28.9645 3.125 30 3.125ZM10.9965 10.9965C11.7287 10.2643 12.9159 10.2643 13.6482 10.9965L14.6303 11.9786C15.3625 12.7108 15.3625 13.898 14.6303 14.6303C13.898 15.3625 12.7108 15.3625 11.9786 14.6303L10.9965 13.6482C10.2643 12.9159 10.2643 11.7287 10.9965 10.9965ZM49.0027 10.9972C49.735 11.7294 49.735 12.9166 49.0027 13.6488L48.0207 14.6309C47.2885 15.3631 46.1012 15.3631 45.369 14.6309C44.6367 13.8987 44.6367 12.7115 45.369 11.9793L46.3512 10.9972C47.0835 10.2649 48.2705 10.2649 49.0027 10.9972ZM3.125 30C3.125 28.9645 3.96447 28.125 5 28.125H7.5C8.53552 28.125 9.375 28.9645 9.375 30C9.375 31.0355 8.53552 31.875 7.5 31.875H5C3.96447 31.875 3.125 31.0355 3.125 30ZM50.625 30C50.625 28.9645 51.4645 28.125 52.5 28.125H55C56.0355 28.125 56.875 28.9645 56.875 30C56.875 31.0355 56.0355 31.875 55 31.875H52.5C51.4645 31.875 50.625 31.0355 50.625 30ZM45.369 45.369C46.1012 44.6367 47.2885 44.6367 48.0207 45.369L49.0027 46.3512C49.735 47.0835 49.735 48.2705 49.0027 49.0027C48.2705 49.735 47.0835 49.735 46.3512 49.0027L45.369 48.0207C44.6367 47.2885 44.6367 46.1012 45.369 45.369ZM14.6303 45.3697C15.3625 46.102 15.3625 47.2892 14.6303 48.0215L13.6482 49.0035C12.9159 49.7357 11.7287 49.7357 10.9965 49.0035C10.2643 48.2712 10.2643 47.084 10.9965 46.3517L11.9786 45.3697C12.7108 44.6375 13.898 44.6375 14.6303 45.3697ZM30 50.625C31.0355 50.625 31.875 51.4645 31.875 52.5V55C31.875 56.0355 31.0355 56.875 30 56.875C28.9645 56.875 28.125 56.0355 28.125 55V52.5C28.125 51.4645 28.9645 50.625 30 50.625Z" fill="#0E1111"/>
</svg>
