<svg width="50" height="50" viewBox="0 0 50 50" fill="none" xmlns="http://www.w3.org/2000/svg">
<path d="M37.5 25C37.5 31.9035 31.9035 37.5 25 37.5C18.0964 37.5 12.5 31.9035 12.5 25C12.5 18.0964 18.0964 12.5 25 12.5C31.9035 12.5 37.5 18.0964 37.5 25Z" fill="#0E1111"/>
<path fill-rule="evenodd" clip-rule="evenodd" d="M25 2.60416C25.8629 2.60416 26.5625 3.30372 26.5625 4.16666V6.24999C26.5625 7.11293 25.8629 7.81249 25 7.81249C24.1371 7.81249 23.4375 7.11293 23.4375 6.24999V4.16666C23.4375 3.30372 24.1371 2.60416 25 2.60416ZM9.16379 9.16376C9.77398 8.55357 10.7633 8.55357 11.3735 9.16376L12.1919 9.98218C12.8021 10.5924 12.8021 11.5817 12.1919 12.1919C11.5817 12.8021 10.5924 12.8021 9.98221 12.1919L9.16379 11.3735C8.5536 10.7633 8.5536 9.77395 9.16379 9.16376ZM40.8356 9.1643C41.4459 9.77449 41.4459 10.7638 40.8356 11.374L40.0173 12.1924C39.4071 12.8026 38.4177 12.8026 37.8075 12.1924C37.1973 11.5822 37.1973 10.5929 37.8075 9.98272L38.6261 9.1643C39.2363 8.55411 40.2254 8.55411 40.8356 9.1643ZM2.60419 25C2.60419 24.1371 3.30375 23.4375 4.16669 23.4375H6.25002C7.11296 23.4375 7.81252 24.1371 7.81252 25C7.81252 25.8629 7.11296 26.5625 6.25002 26.5625H4.16669C3.30375 26.5625 2.60419 25.8629 2.60419 25ZM42.1875 25C42.1875 24.1371 42.8871 23.4375 43.75 23.4375H45.8334C46.6963 23.4375 47.3959 24.1371 47.3959 25C47.3959 25.8629 46.6963 26.5625 45.8334 26.5625H43.75C42.8871 26.5625 42.1875 25.8629 42.1875 25ZM37.8075 37.8075C38.4177 37.1973 39.4071 37.1973 40.0173 37.8075L40.8356 38.626C41.4459 39.2362 41.4459 40.2254 40.8356 40.8356C40.2254 41.4458 39.2363 41.4458 38.6261 40.8356L37.8075 40.0173C37.1973 39.4071 37.1973 38.4177 37.8075 37.8075ZM12.1919 37.8081C12.8021 38.4183 12.8021 39.4077 12.1919 40.0179L11.3735 40.8362C10.7633 41.4464 9.77398 41.4464 9.16379 40.8362C8.5536 40.226 8.5536 39.2367 9.16379 38.6264L9.98221 37.8081C10.5924 37.1979 11.5817 37.1979 12.1919 37.8081ZM25 42.1875C25.8629 42.1875 26.5625 42.8871 26.5625 43.75V45.8333C26.5625 46.6962 25.8629 47.3958 25 47.3958C24.1371 47.3958 23.4375 46.6962 23.4375 45.8333V43.75C23.4375 42.8871 24.1371 42.1875 25 42.1875Z" fill="#0E1111"/>
</svg>
