<svg width="50" height="50" viewBox="0 0 50 50" fill="none" xmlns="http://www.w3.org/2000/svg">
<path d="M46.6932 9.60313L26.1591 46.3214C25.7351 47.0794 24.646 47.0839 24.2155 46.3295L3.27443 9.60656C2.80568 8.78438 3.50849 7.78859 4.44005 7.955L24.9963 11.6294C25.1274 11.6528 25.2617 11.6526 25.3927 11.6288L45.519 7.96031C46.4474 7.79109 47.1538 8.77938 46.6932 9.60313Z" fill="url(#paint0_linear_27_188)"/>
<path d="M34.7881 3.13578L19.5923 6.11328C19.4709 6.13704 19.3608 6.2005 19.2794 6.29367C19.1979 6.38684 19.1498 6.50444 19.1425 6.62797L18.2078 22.4152C18.1859 22.787 18.5273 23.0756 18.8901 22.9919L23.1209 22.0156C23.5168 21.9242 23.8745 22.273 23.7931 22.6709L22.5362 28.8261C22.4515 29.2402 22.8404 29.5945 23.245 29.4717L25.8581 28.6777C26.2633 28.5547 26.6525 28.91 26.5668 29.3245L24.5693 38.9928C24.4443 39.5975 25.2487 39.9272 25.5842 39.4087L25.8083 39.0625L38.1906 14.3512C38.3979 13.9375 38.0406 13.4658 37.5859 13.5534L33.2312 14.3939C32.8218 14.4728 32.4737 14.0917 32.5892 13.6912L35.4315 3.83812C35.5472 3.43687 35.1978 3.05547 34.7881 3.13578Z" fill="url(#paint1_linear_27_188)"/>
<defs>
<linearGradient id="paint0_linear_27_188" x1="2.76307" y1="6.64258" x2="28.318" y2="41.3483" gradientUnits="userSpaceOnUse">
<stop stop-color="#41D1FF"/>
<stop offset="1" stop-color="#BD34FE"/>
</linearGradient>
<linearGradient id="paint1_linear_27_188" x1="23.8152" y1="3.94405" x2="28.438" y2="35.6557" gradientUnits="userSpaceOnUse">
<stop stop-color="#FFEA83"/>
<stop offset="0.0833" stop-color="#FFDD35"/>
<stop offset="1" stop-color="#FFA800"/>
</linearGradient>
</defs>
</svg>
